<svg width="26" height="20" viewBox="0 0 26 20" fill="none" xmlns="http://www.w3.org/2000/svg">
<path d="M25.5833 3.325C25.5057 3.22416 25.406 3.14243 25.2919 3.08609C25.1777 3.02976 25.0522 3.00031 24.925 3H5.67497L5.29997 1.80833C5.25878 1.68038 5.18724 1.5643 5.09147 1.46998C4.9957 1.37566 4.87854 1.3059 4.74997 1.26667L1.3333 0.216668C1.22825 0.184385 1.11786 0.17311 1.00844 0.183488C0.899029 0.193866 0.792729 0.225693 0.695615 0.277152C0.499483 0.381078 0.352669 0.558662 0.28747 0.770835C0.222271 0.983008 0.244028 1.21239 0.347954 1.40852C0.451881 1.60465 0.629464 1.75147 0.841637 1.81667L3.8333 2.73333L7.64997 14.7917L6.29164 15.9083L6.1833 16.0167C5.84738 16.4056 5.65707 16.8992 5.64491 17.413C5.63274 17.9268 5.7995 18.4289 6.11664 18.8333C6.34377 19.1096 6.63239 19.3288 6.95942 19.4735C7.28644 19.6182 7.6428 19.6843 7.99997 19.6667H21.9083C22.1293 19.6667 22.3413 19.5789 22.4976 19.4226C22.6538 19.2663 22.7416 19.0543 22.7416 18.8333C22.7416 18.6123 22.6538 18.4004 22.4976 18.2441C22.3413 18.0878 22.1293 18 21.9083 18H7.86664C7.77068 17.9967 7.67718 17.9688 7.59518 17.9188C7.51319 17.8688 7.44546 17.7986 7.39855 17.7148C7.35163 17.631 7.32712 17.5366 7.32737 17.4405C7.32761 17.3445 7.35262 17.2502 7.39997 17.1667L9.4083 15.5H22.2666C22.457 15.5055 22.6435 15.4457 22.7951 15.3305C22.9468 15.2153 23.0543 15.0516 23.1 14.8667L25.7666 4.03333C25.792 3.9091 25.7886 3.78072 25.7569 3.65797C25.7251 3.53522 25.6657 3.42134 25.5833 3.325Z" fill="white"/>
</svg>
