<svg width="25" height="25" viewBox="0 0 25 25" fill="none" xmlns="http://www.w3.org/2000/svg">
<path d="M21.7788 19.2212C21.1933 18.6605 20.6235 18.0836 20.07 17.4913C19.605 17.0188 19.325 16.675 19.325 16.675L15.825 15.0037C17.2262 13.4145 17.9996 11.3687 18 9.25C18 4.42625 14.075 0.5 9.25 0.5C4.425 0.5 0.5 4.42625 0.5 9.25C0.5 14.0737 4.425 18 9.25 18C11.4538 18 13.4625 17.175 15.0038 15.8263L16.675 19.3263C16.675 19.3263 17.0188 19.6062 17.4913 20.0712C17.975 20.525 18.6112 21.1388 19.2213 21.78L20.9188 23.52L21.6738 24.3275L24.325 21.6763L23.5175 20.9212C23.0438 20.4562 22.4113 19.8387 21.7788 19.2212ZM9.25 15.5C5.80375 15.5 3 12.6962 3 9.25C3 5.80375 5.80375 3 9.25 3C12.6963 3 15.5 5.80375 15.5 9.25C15.5 12.6962 12.6963 15.5 9.25 15.5Z" fill="white"/>
</svg>
